<svg width="730" height="920" viewBox="0 0 730 920" fill="none" xmlns="http://www.w3.org/2000/svg">
<path d="M730.065 919.5C730.065 919.5 637.565 906.5 461.565 805.5C285.565 704.5 388.565 573 155.065 448.5C-78.4353 324 21.0648 0 21.0648 0H730.065V919.5Z" fill="url(#paint0_linear)"/>
<rect x="304" y="101" width="381" height="203" rx="5" fill="white"/>
<rect x="338" y="142" width="204" height="30" rx="10" fill="#C4C4C4" fill-opacity="0.22"/>
<rect x="338" y="187" width="58" height="30" rx="10" fill="#1E88E5" fill-opacity="0.5"/>
<circle cx="626" cy="177" r="35" fill="#1E88E5"/>
<path d="M660.5 181C663 172.5 658 142 624 142V162.5L639.5 167.5V181L652.5 192.5L660.5 181Z" fill="#3FAF94"/>
<path d="M627.5 212C617.5 212 591.4 206.2 591 177C591 177 593.29 162.955 597 157C600.71 151.045 610 146.5 610 146.5L623.5 167.5L617.5 184L627.5 179.5V192.5L647.5 201L627.5 212Z" fill="#3FAF94"/>
<circle cx="360" cy="157" r="5" fill="#424242"/>
<circle cx="375" cy="157" r="5" fill="#424242"/>
<circle cx="390" cy="157" r="5" fill="#424242"/>
<circle cx="405" cy="157" r="5" fill="#424242"/>
<circle cx="420" cy="157" r="5" fill="#424242"/>
<circle cx="435" cy="157" r="5" fill="#424242"/>
<circle cx="450" cy="157" r="5" fill="#424242"/>
<circle cx="465" cy="157" r="5" fill="#424242"/>
<circle cx="480" cy="157" r="5" fill="#424242"/>
<circle cx="495" cy="157" r="5" fill="#424242"/>
<path d="M350.092 203.791H347.244L346.559 206H345.475L348.229 197.469H349.137L351.844 206H350.766L350.092 203.791ZM347.537 202.848H349.805L348.68 199.145L347.537 202.848ZM355.928 205.238C356.123 205.238 356.312 205.207 356.496 205.145C356.684 205.082 356.85 204.996 356.994 204.887C357.139 204.773 357.254 204.643 357.34 204.494C357.43 204.342 357.477 204.178 357.48 204.002H358.506C358.502 204.283 358.428 204.553 358.283 204.811C358.143 205.064 357.953 205.289 357.715 205.484C357.477 205.676 357.203 205.83 356.895 205.947C356.586 206.061 356.264 206.117 355.928 206.117C355.447 206.117 355.027 206.031 354.668 205.859C354.309 205.688 354.008 205.457 353.766 205.168C353.527 204.875 353.348 204.539 353.227 204.16C353.105 203.777 353.045 203.375 353.045 202.953V202.707C353.045 202.289 353.105 201.889 353.227 201.506C353.348 201.123 353.527 200.787 353.766 200.498C354.008 200.205 354.309 199.973 354.668 199.801C355.027 199.629 355.447 199.543 355.928 199.543C356.303 199.543 356.646 199.604 356.959 199.725C357.275 199.842 357.547 200.004 357.773 200.211C358.004 200.414 358.184 200.656 358.312 200.938C358.441 201.219 358.506 201.52 358.506 201.84H357.48C357.477 201.648 357.434 201.469 357.352 201.301C357.273 201.129 357.166 200.979 357.029 200.85C356.893 200.721 356.729 200.619 356.537 200.545C356.35 200.471 356.146 200.434 355.928 200.434C355.592 200.434 355.309 200.502 355.078 200.639C354.852 200.771 354.668 200.947 354.527 201.166C354.387 201.381 354.285 201.623 354.223 201.893C354.164 202.162 354.135 202.434 354.135 202.707V202.953C354.135 203.23 354.164 203.506 354.223 203.779C354.285 204.049 354.385 204.293 354.521 204.512C354.662 204.727 354.846 204.902 355.072 205.039C355.303 205.172 355.588 205.238 355.928 205.238ZM363 198.125V199.66H365.414V200.498H363V203.943C363 204.189 363.031 204.393 363.094 204.553C363.156 204.713 363.242 204.842 363.352 204.939C363.461 205.033 363.586 205.1 363.727 205.139C363.871 205.178 364.023 205.197 364.184 205.197C364.301 205.197 364.422 205.191 364.547 205.18C364.672 205.164 364.793 205.146 364.91 205.127C365.031 205.107 365.143 205.088 365.244 205.068C365.35 205.045 365.436 205.025 365.502 205.01L365.654 205.777C365.564 205.832 365.455 205.881 365.326 205.924C365.197 205.963 365.057 205.996 364.904 206.023C364.752 206.055 364.59 206.078 364.418 206.094C364.25 206.109 364.082 206.117 363.914 206.117C363.633 206.117 363.369 206.078 363.123 206C362.881 205.918 362.67 205.791 362.49 205.619C362.311 205.443 362.168 205.219 362.062 204.945C361.961 204.668 361.91 204.334 361.91 203.943V200.498H360.246V199.66H361.91V198.125H363ZM367.811 199.66H371.051V205.062H373.119V206H367.811V205.062H369.967V200.604H367.811V199.66ZM369.826 197.996C369.826 197.816 369.879 197.666 369.984 197.545C370.094 197.42 370.258 197.357 370.477 197.357C370.691 197.357 370.854 197.42 370.963 197.545C371.072 197.666 371.127 197.816 371.127 197.996C371.127 198.172 371.072 198.318 370.963 198.436C370.854 198.553 370.691 198.611 370.477 198.611C370.258 198.611 370.094 198.553 369.984 198.436C369.879 198.318 369.826 198.172 369.826 197.996ZM377.332 204.441L377.432 204.834L377.537 204.441L379.312 199.66H380.42L377.836 206H377.01L374.402 199.66H375.516L377.332 204.441ZM384.855 206.117C384.41 206.117 384 206.041 383.625 205.889C383.254 205.736 382.936 205.523 382.67 205.25C382.404 204.977 382.197 204.652 382.049 204.277C381.9 203.902 381.826 203.494 381.826 203.053V202.807C381.826 202.295 381.908 201.838 382.072 201.436C382.236 201.029 382.453 200.688 382.723 200.41C382.996 200.129 383.305 199.914 383.648 199.766C383.996 199.617 384.352 199.543 384.715 199.543C385.172 199.543 385.57 199.623 385.91 199.783C386.254 199.939 386.539 200.158 386.766 200.439C386.992 200.717 387.16 201.045 387.27 201.424C387.383 201.803 387.439 202.213 387.439 202.654V203.141H382.91C382.922 203.43 382.977 203.701 383.074 203.955C383.176 204.209 383.312 204.432 383.484 204.623C383.66 204.811 383.869 204.959 384.111 205.068C384.354 205.178 384.621 205.232 384.914 205.232C385.301 205.232 385.645 205.154 385.945 204.998C386.246 204.842 386.496 204.635 386.695 204.377L387.357 204.893C387.252 205.053 387.119 205.207 386.959 205.355C386.803 205.5 386.621 205.629 386.414 205.742C386.207 205.855 385.973 205.945 385.711 206.012C385.449 206.082 385.164 206.117 384.855 206.117ZM384.715 200.434C384.496 200.434 384.289 200.475 384.094 200.557C383.898 200.635 383.723 200.752 383.566 200.908C383.41 201.061 383.277 201.25 383.168 201.477C383.062 201.699 382.988 201.957 382.945 202.25H386.355V202.168C386.344 201.957 386.303 201.748 386.232 201.541C386.166 201.334 386.066 201.148 385.934 200.984C385.801 200.82 385.633 200.688 385.43 200.586C385.23 200.484 384.992 200.434 384.715 200.434Z" fill="white"/>
<path d="M344.545 258.434C344.494 258.828 344.393 259.191 344.24 259.523C344.088 259.852 343.889 260.135 343.643 260.373C343.4 260.607 343.111 260.791 342.775 260.924C342.443 261.053 342.072 261.117 341.662 261.117C341.311 261.117 340.99 261.068 340.701 260.971C340.416 260.869 340.16 260.73 339.934 260.555C339.711 260.379 339.518 260.172 339.354 259.934C339.193 259.695 339.059 259.436 338.949 259.154C338.844 258.873 338.764 258.578 338.709 258.27C338.658 257.961 338.631 257.648 338.627 257.332V256.143C338.631 255.826 338.658 255.514 338.709 255.205C338.764 254.896 338.844 254.602 338.949 254.32C339.059 254.039 339.193 253.779 339.354 253.541C339.518 253.299 339.711 253.09 339.934 252.914C340.16 252.738 340.416 252.602 340.701 252.504C340.986 252.402 341.307 252.352 341.662 252.352C342.088 252.352 342.469 252.418 342.805 252.551C343.141 252.68 343.43 252.865 343.672 253.107C343.914 253.346 344.107 253.633 344.252 253.969C344.4 254.305 344.498 254.676 344.545 255.082H343.461C343.426 254.824 343.365 254.584 343.279 254.361C343.193 254.139 343.078 253.943 342.934 253.775C342.789 253.607 342.611 253.477 342.4 253.383C342.193 253.285 341.947 253.236 341.662 253.236C341.404 253.236 341.176 253.279 340.977 253.365C340.781 253.447 340.611 253.561 340.467 253.705C340.326 253.85 340.207 254.018 340.109 254.209C340.016 254.4 339.939 254.604 339.881 254.818C339.822 255.033 339.779 255.254 339.752 255.48C339.729 255.703 339.717 255.92 339.717 256.131V257.332C339.717 257.543 339.729 257.762 339.752 257.988C339.779 258.211 339.822 258.432 339.881 258.65C339.939 258.865 340.016 259.068 340.109 259.26C340.203 259.451 340.322 259.621 340.467 259.77C340.611 259.914 340.781 260.029 340.977 260.115C341.172 260.197 341.4 260.238 341.662 260.238C341.947 260.238 342.193 260.193 342.4 260.104C342.611 260.014 342.789 259.889 342.934 259.729C343.078 259.564 343.193 259.373 343.279 259.154C343.365 258.932 343.426 258.691 343.461 258.434H344.545ZM350.34 260.127C350.129 260.439 349.865 260.684 349.549 260.859C349.232 261.031 348.867 261.117 348.453 261.117C348.121 261.117 347.82 261.066 347.551 260.965C347.281 260.859 347.051 260.697 346.859 260.479C346.668 260.26 346.52 259.982 346.414 259.646C346.312 259.307 346.262 258.9 346.262 258.428V254.66H347.346V258.439C347.346 258.783 347.373 259.068 347.428 259.295C347.482 259.521 347.564 259.703 347.674 259.84C347.783 259.973 347.916 260.066 348.072 260.121C348.232 260.176 348.416 260.203 348.623 260.203C349.064 260.203 349.42 260.113 349.689 259.934C349.963 259.754 350.166 259.512 350.299 259.207V254.66H351.389V261H350.404L350.34 260.127ZM357.646 259.318C357.646 259.189 357.621 259.074 357.57 258.973C357.52 258.867 357.434 258.771 357.312 258.686C357.191 258.6 357.031 258.521 356.832 258.451C356.633 258.377 356.385 258.311 356.088 258.252C355.725 258.178 355.393 258.088 355.092 257.982C354.795 257.877 354.539 257.752 354.324 257.607C354.113 257.459 353.949 257.287 353.832 257.092C353.715 256.893 353.656 256.662 353.656 256.4C353.656 256.143 353.717 255.902 353.838 255.68C353.959 255.453 354.129 255.256 354.348 255.088C354.566 254.92 354.826 254.787 355.127 254.689C355.432 254.592 355.766 254.543 356.129 254.543C356.52 254.543 356.871 254.594 357.184 254.695C357.496 254.797 357.762 254.938 357.98 255.117C358.199 255.297 358.367 255.508 358.484 255.75C358.605 255.988 358.666 256.246 358.666 256.523H357.582C357.582 256.387 357.547 256.254 357.477 256.125C357.406 255.992 357.309 255.875 357.184 255.773C357.059 255.672 356.906 255.59 356.727 255.527C356.551 255.465 356.352 255.434 356.129 255.434C355.898 255.434 355.695 255.459 355.52 255.51C355.348 255.561 355.203 255.629 355.086 255.715C354.973 255.801 354.887 255.9 354.828 256.014C354.77 256.127 354.74 256.244 354.74 256.365C354.74 256.49 354.764 256.602 354.811 256.699C354.857 256.797 354.938 256.885 355.051 256.963C355.168 257.041 355.322 257.111 355.514 257.174C355.709 257.236 355.955 257.297 356.252 257.355C356.643 257.438 356.992 257.533 357.301 257.643C357.609 257.748 357.869 257.877 358.08 258.029C358.291 258.178 358.451 258.352 358.561 258.551C358.674 258.75 358.73 258.98 358.73 259.242C358.73 259.523 358.666 259.779 358.537 260.01C358.412 260.24 358.236 260.438 358.01 260.602C357.783 260.766 357.512 260.893 357.195 260.982C356.879 261.072 356.533 261.117 356.158 261.117C355.729 261.117 355.346 261.061 355.01 260.947C354.674 260.83 354.389 260.678 354.154 260.49C353.924 260.299 353.746 260.078 353.621 259.828C353.5 259.578 353.439 259.318 353.439 259.049H354.523C354.539 259.271 354.598 259.459 354.699 259.611C354.805 259.764 354.934 259.887 355.086 259.98C355.242 260.074 355.414 260.141 355.602 260.18C355.789 260.219 355.975 260.238 356.158 260.238C356.615 260.238 356.977 260.154 357.242 259.986C357.508 259.818 357.643 259.596 357.646 259.318ZM363.207 253.125V254.66H365.621V255.498H363.207V258.943C363.207 259.189 363.238 259.393 363.301 259.553C363.363 259.713 363.449 259.842 363.559 259.939C363.668 260.033 363.793 260.1 363.934 260.139C364.078 260.178 364.23 260.197 364.391 260.197C364.508 260.197 364.629 260.191 364.754 260.18C364.879 260.164 365 260.146 365.117 260.127C365.238 260.107 365.35 260.088 365.451 260.068C365.557 260.045 365.643 260.025 365.709 260.01L365.861 260.777C365.771 260.832 365.662 260.881 365.533 260.924C365.404 260.963 365.264 260.996 365.111 261.023C364.959 261.055 364.797 261.078 364.625 261.094C364.457 261.109 364.289 261.117 364.121 261.117C363.84 261.117 363.576 261.078 363.33 261C363.088 260.918 362.877 260.791 362.697 260.619C362.518 260.443 362.375 260.219 362.27 259.945C362.168 259.668 362.117 259.334 362.117 258.943V255.498H360.453V254.66H362.117V253.125H363.207ZM367.543 257.771C367.543 257.314 367.609 256.891 367.742 256.5C367.875 256.105 368.064 255.764 368.311 255.475C368.561 255.186 368.863 254.959 369.219 254.795C369.574 254.627 369.975 254.543 370.42 254.543C370.869 254.543 371.271 254.627 371.627 254.795C371.986 254.959 372.289 255.186 372.535 255.475C372.785 255.764 372.977 256.105 373.109 256.5C373.242 256.891 373.309 257.314 373.309 257.771V257.9C373.309 258.357 373.242 258.781 373.109 259.172C372.977 259.562 372.785 259.902 372.535 260.191C372.289 260.48 371.988 260.707 371.633 260.871C371.277 261.035 370.877 261.117 370.432 261.117C369.982 261.117 369.578 261.035 369.219 260.871C368.863 260.707 368.561 260.48 368.311 260.191C368.064 259.902 367.875 259.562 367.742 259.172C367.609 258.781 367.543 258.357 367.543 257.9V257.771ZM368.627 257.9C368.627 258.213 368.664 258.512 368.738 258.797C368.812 259.078 368.924 259.326 369.072 259.541C369.225 259.756 369.414 259.926 369.641 260.051C369.867 260.176 370.131 260.238 370.432 260.238C370.729 260.238 370.988 260.176 371.211 260.051C371.438 259.926 371.625 259.756 371.773 259.541C371.926 259.326 372.039 259.078 372.113 258.797C372.188 258.512 372.225 258.213 372.225 257.9V257.771C372.225 257.463 372.186 257.168 372.107 256.887C372.033 256.602 371.92 256.352 371.768 256.137C371.619 255.922 371.432 255.752 371.205 255.627C370.982 255.498 370.721 255.434 370.42 255.434C370.119 255.434 369.857 255.498 369.635 255.627C369.412 255.752 369.225 255.922 369.072 256.137C368.924 256.352 368.812 256.602 368.738 256.887C368.664 257.168 368.627 257.463 368.627 257.771V257.9ZM375.553 254.66L375.582 255.258C375.711 255.035 375.879 254.861 376.086 254.736C376.297 254.611 376.551 254.547 376.848 254.543C377.43 254.543 377.818 254.77 378.014 255.223C378.139 255.02 378.303 254.857 378.506 254.736C378.713 254.611 378.963 254.547 379.256 254.543C379.721 254.543 380.078 254.686 380.328 254.971C380.578 255.256 380.703 255.688 380.703 256.266V261H379.672V256.254C379.672 255.723 379.428 255.459 378.939 255.463C378.811 255.463 378.699 255.48 378.605 255.516C378.512 255.551 378.434 255.6 378.371 255.662C378.309 255.721 378.26 255.791 378.225 255.873C378.189 255.951 378.166 256.033 378.154 256.119V261H377.123V256.248C377.123 255.994 377.066 255.799 376.953 255.662C376.84 255.525 376.66 255.459 376.414 255.463C376.188 255.463 376.012 255.508 375.887 255.598C375.762 255.688 375.67 255.807 375.611 255.955V261H374.58V254.66H375.553ZM385.062 261.117C384.617 261.117 384.207 261.041 383.832 260.889C383.461 260.736 383.143 260.523 382.877 260.25C382.611 259.977 382.404 259.652 382.256 259.277C382.107 258.902 382.033 258.494 382.033 258.053V257.807C382.033 257.295 382.115 256.838 382.279 256.436C382.443 256.029 382.66 255.688 382.93 255.41C383.203 255.129 383.512 254.914 383.855 254.766C384.203 254.617 384.559 254.543 384.922 254.543C385.379 254.543 385.777 254.623 386.117 254.783C386.461 254.939 386.746 255.158 386.973 255.439C387.199 255.717 387.367 256.045 387.477 256.424C387.59 256.803 387.646 257.213 387.646 257.654V258.141H383.117C383.129 258.43 383.184 258.701 383.281 258.955C383.383 259.209 383.52 259.432 383.691 259.623C383.867 259.811 384.076 259.959 384.318 260.068C384.561 260.178 384.828 260.232 385.121 260.232C385.508 260.232 385.852 260.154 386.152 259.998C386.453 259.842 386.703 259.635 386.902 259.377L387.564 259.893C387.459 260.053 387.326 260.207 387.166 260.355C387.01 260.5 386.828 260.629 386.621 260.742C386.414 260.855 386.18 260.945 385.918 261.012C385.656 261.082 385.371 261.117 385.062 261.117ZM384.922 255.434C384.703 255.434 384.496 255.475 384.301 255.557C384.105 255.635 383.93 255.752 383.773 255.908C383.617 256.061 383.484 256.25 383.375 256.477C383.27 256.699 383.195 256.957 383.152 257.25H386.562V257.168C386.551 256.957 386.51 256.748 386.439 256.541C386.373 256.334 386.273 256.148 386.141 255.984C386.008 255.82 385.84 255.688 385.637 255.586C385.438 255.484 385.199 255.434 384.922 255.434ZM393.623 254.543C393.725 254.543 393.83 254.547 393.939 254.555C394.049 254.559 394.152 254.568 394.25 254.584C394.352 254.596 394.443 254.611 394.525 254.631C394.611 254.65 394.682 254.672 394.736 254.695L394.59 255.756C394.379 255.709 394.178 255.676 393.986 255.656C393.799 255.633 393.602 255.621 393.395 255.621C392.887 255.621 392.475 255.736 392.158 255.967C391.846 256.197 391.615 256.52 391.467 256.934V261H390.377V254.66H391.408L391.461 255.668C391.719 255.32 392.027 255.047 392.387 254.848C392.75 254.645 393.162 254.543 393.623 254.543ZM406.707 257.52H405.002V261H403.924V252.469H406.426C406.824 252.477 407.199 252.533 407.551 252.639C407.902 252.744 408.209 252.902 408.471 253.113C408.736 253.324 408.943 253.59 409.092 253.91C409.244 254.227 409.32 254.6 409.32 255.029C409.32 255.307 409.279 255.561 409.197 255.791C409.119 256.021 409.01 256.23 408.869 256.418C408.729 256.605 408.561 256.771 408.365 256.916C408.17 257.061 407.955 257.184 407.721 257.285L409.531 260.93L409.525 261H408.383L406.707 257.52ZM405.002 256.629H406.455C406.697 256.625 406.926 256.588 407.141 256.518C407.355 256.443 407.543 256.338 407.703 256.201C407.867 256.064 407.996 255.898 408.09 255.703C408.184 255.504 408.23 255.275 408.23 255.018C408.23 254.744 408.186 254.506 408.096 254.303C408.006 254.096 407.881 253.924 407.721 253.787C407.561 253.646 407.369 253.541 407.146 253.471C406.928 253.4 406.688 253.363 406.426 253.359H405.002V256.629ZM413.891 261.117C413.445 261.117 413.035 261.041 412.66 260.889C412.289 260.736 411.971 260.523 411.705 260.25C411.439 259.977 411.232 259.652 411.084 259.277C410.936 258.902 410.861 258.494 410.861 258.053V257.807C410.861 257.295 410.943 256.838 411.107 256.436C411.271 256.029 411.488 255.688 411.758 255.41C412.031 255.129 412.34 254.914 412.684 254.766C413.031 254.617 413.387 254.543 413.75 254.543C414.207 254.543 414.605 254.623 414.945 254.783C415.289 254.939 415.574 255.158 415.801 255.439C416.027 255.717 416.195 256.045 416.305 256.424C416.418 256.803 416.475 257.213 416.475 257.654V258.141H411.945C411.957 258.43 412.012 258.701 412.109 258.955C412.211 259.209 412.348 259.432 412.52 259.623C412.695 259.811 412.904 259.959 413.146 260.068C413.389 260.178 413.656 260.232 413.949 260.232C414.336 260.232 414.68 260.154 414.98 259.998C415.281 259.842 415.531 259.635 415.73 259.377L416.393 259.893C416.287 260.053 416.154 260.207 415.994 260.355C415.838 260.5 415.656 260.629 415.449 260.742C415.242 260.855 415.008 260.945 414.746 261.012C414.484 261.082 414.199 261.117 413.891 261.117ZM413.75 255.434C413.531 255.434 413.324 255.475 413.129 255.557C412.934 255.635 412.758 255.752 412.602 255.908C412.445 256.061 412.312 256.25 412.203 256.477C412.098 256.699 412.023 256.957 411.98 257.25H415.391V257.168C415.379 256.957 415.338 256.748 415.268 256.541C415.201 256.334 415.102 256.148 414.969 255.984C414.836 255.82 414.668 255.688 414.465 255.586C414.266 255.484 414.027 255.434 413.75 255.434ZM418.467 252H421.707V260.062H423.775V261H418.467V260.062H420.623V252.943H418.467V252ZM429.67 261C429.627 260.918 429.592 260.816 429.564 260.695C429.541 260.57 429.523 260.441 429.512 260.309C429.402 260.418 429.279 260.521 429.143 260.619C429.01 260.717 428.861 260.803 428.697 260.877C428.537 260.951 428.365 261.01 428.182 261.053C427.998 261.096 427.803 261.117 427.596 261.117C427.26 261.117 426.955 261.068 426.682 260.971C426.412 260.873 426.182 260.742 425.99 260.578C425.803 260.41 425.656 260.213 425.551 259.986C425.449 259.756 425.398 259.508 425.398 259.242C425.398 258.895 425.467 258.59 425.604 258.328C425.744 258.066 425.941 257.85 426.195 257.678C426.449 257.502 426.754 257.371 427.109 257.285C427.469 257.199 427.869 257.156 428.311 257.156H429.494V256.658C429.494 256.467 429.459 256.295 429.389 256.143C429.318 255.99 429.219 255.861 429.09 255.756C428.961 255.646 428.803 255.562 428.615 255.504C428.432 255.445 428.225 255.416 427.994 255.416C427.779 255.416 427.586 255.443 427.414 255.498C427.246 255.553 427.104 255.625 426.986 255.715C426.869 255.805 426.777 255.912 426.711 256.037C426.648 256.158 426.617 256.285 426.617 256.418H425.527C425.531 256.188 425.59 255.961 425.703 255.738C425.82 255.516 425.986 255.316 426.201 255.141C426.42 254.961 426.684 254.816 426.992 254.707C427.305 254.598 427.658 254.543 428.053 254.543C428.412 254.543 428.746 254.588 429.055 254.678C429.363 254.764 429.629 254.896 429.852 255.076C430.078 255.252 430.256 255.473 430.385 255.738C430.514 256.004 430.578 256.314 430.578 256.67V259.617C430.578 259.828 430.598 260.053 430.637 260.291C430.676 260.525 430.73 260.73 430.801 260.906V261H429.67ZM427.754 260.174C427.965 260.174 428.162 260.146 428.346 260.092C428.529 260.037 428.695 259.965 428.844 259.875C428.996 259.785 429.127 259.684 429.236 259.57C429.346 259.453 429.432 259.332 429.494 259.207V257.924H428.486C427.854 257.924 427.361 258.018 427.01 258.205C426.658 258.393 426.482 258.688 426.482 259.09C426.482 259.246 426.508 259.391 426.559 259.523C426.613 259.656 426.693 259.771 426.799 259.869C426.904 259.963 427.037 260.037 427.197 260.092C427.357 260.146 427.543 260.174 427.754 260.174ZM435.277 253.125V254.66H437.691V255.498H435.277V258.943C435.277 259.189 435.309 259.393 435.371 259.553C435.434 259.713 435.52 259.842 435.629 259.939C435.738 260.033 435.863 260.1 436.004 260.139C436.148 260.178 436.301 260.197 436.461 260.197C436.578 260.197 436.699 260.191 436.824 260.18C436.949 260.164 437.07 260.146 437.188 260.127C437.309 260.107 437.42 260.088 437.521 260.068C437.627 260.045 437.713 260.025 437.779 260.01L437.932 260.777C437.842 260.832 437.732 260.881 437.604 260.924C437.475 260.963 437.334 260.996 437.182 261.023C437.029 261.055 436.867 261.078 436.695 261.094C436.527 261.109 436.359 261.117 436.191 261.117C435.91 261.117 435.646 261.078 435.4 261C435.158 260.918 434.947 260.791 434.768 260.619C434.588 260.443 434.445 260.219 434.34 259.945C434.238 259.668 434.188 259.334 434.188 258.943V255.498H432.523V254.66H434.188V253.125H435.277ZM440.088 254.66H443.328V260.062H445.396V261H440.088V260.062H442.244V255.604H440.088V254.66ZM442.104 252.996C442.104 252.816 442.156 252.666 442.262 252.545C442.371 252.42 442.535 252.357 442.754 252.357C442.969 252.357 443.131 252.42 443.24 252.545C443.35 252.666 443.404 252.816 443.404 252.996C443.404 253.172 443.35 253.318 443.24 253.436C443.131 253.553 442.969 253.611 442.754 253.611C442.535 253.611 442.371 253.553 442.262 253.436C442.156 253.318 442.104 253.172 442.104 252.996ZM446.82 257.771C446.82 257.314 446.887 256.891 447.02 256.5C447.152 256.105 447.342 255.764 447.588 255.475C447.838 255.186 448.141 254.959 448.496 254.795C448.852 254.627 449.252 254.543 449.697 254.543C450.146 254.543 450.549 254.627 450.904 254.795C451.264 254.959 451.566 255.186 451.812 255.475C452.062 255.764 452.254 256.105 452.387 256.5C452.52 256.891 452.586 257.314 452.586 257.771V257.9C452.586 258.357 452.52 258.781 452.387 259.172C452.254 259.562 452.062 259.902 451.812 260.191C451.566 260.48 451.266 260.707 450.91 260.871C450.555 261.035 450.154 261.117 449.709 261.117C449.26 261.117 448.855 261.035 448.496 260.871C448.141 260.707 447.838 260.48 447.588 260.191C447.342 259.902 447.152 259.562 447.02 259.172C446.887 258.781 446.82 258.357 446.82 257.9V257.771ZM447.904 257.9C447.904 258.213 447.941 258.512 448.016 258.797C448.09 259.078 448.201 259.326 448.35 259.541C448.502 259.756 448.691 259.926 448.918 260.051C449.145 260.176 449.408 260.238 449.709 260.238C450.006 260.238 450.266 260.176 450.488 260.051C450.715 259.926 450.902 259.756 451.051 259.541C451.203 259.326 451.316 259.078 451.391 258.797C451.465 258.512 451.502 258.213 451.502 257.9V257.771C451.502 257.463 451.463 257.168 451.385 256.887C451.311 256.602 451.197 256.352 451.045 256.137C450.896 255.922 450.709 255.752 450.482 255.627C450.26 255.498 449.998 255.434 449.697 255.434C449.396 255.434 449.135 255.498 448.912 255.627C448.689 255.752 448.502 255.922 448.35 256.137C448.201 256.352 448.09 256.602 448.016 256.887C447.941 257.168 447.904 257.463 447.904 257.771V257.9ZM455.305 254.66L455.381 255.598C455.611 255.27 455.895 255.014 456.23 254.83C456.566 254.643 456.941 254.547 457.355 254.543C457.688 254.543 457.988 254.59 458.258 254.684C458.531 254.777 458.764 254.924 458.955 255.123C459.146 255.322 459.293 255.576 459.395 255.885C459.5 256.189 459.553 256.553 459.553 256.975V261H458.469V256.998C458.469 256.717 458.438 256.479 458.375 256.283C458.312 256.088 458.219 255.93 458.094 255.809C457.973 255.688 457.822 255.6 457.643 255.545C457.467 255.49 457.264 255.463 457.033 255.463C456.67 255.463 456.35 255.555 456.072 255.738C455.799 255.918 455.58 256.156 455.416 256.453V261H454.332V254.66H455.305ZM465.752 259.318C465.752 259.189 465.727 259.074 465.676 258.973C465.625 258.867 465.539 258.771 465.418 258.686C465.297 258.6 465.137 258.521 464.938 258.451C464.738 258.377 464.49 258.311 464.193 258.252C463.83 258.178 463.498 258.088 463.197 257.982C462.9 257.877 462.645 257.752 462.43 257.607C462.219 257.459 462.055 257.287 461.938 257.092C461.82 256.893 461.762 256.662 461.762 256.4C461.762 256.143 461.822 255.902 461.943 255.68C462.064 255.453 462.234 255.256 462.453 255.088C462.672 254.92 462.932 254.787 463.232 254.689C463.537 254.592 463.871 254.543 464.234 254.543C464.625 254.543 464.977 254.594 465.289 254.695C465.602 254.797 465.867 254.938 466.086 255.117C466.305 255.297 466.473 255.508 466.59 255.75C466.711 255.988 466.771 256.246 466.771 256.523H465.688C465.688 256.387 465.652 256.254 465.582 256.125C465.512 255.992 465.414 255.875 465.289 255.773C465.164 255.672 465.012 255.59 464.832 255.527C464.656 255.465 464.457 255.434 464.234 255.434C464.004 255.434 463.801 255.459 463.625 255.51C463.453 255.561 463.309 255.629 463.191 255.715C463.078 255.801 462.992 255.9 462.934 256.014C462.875 256.127 462.846 256.244 462.846 256.365C462.846 256.49 462.869 256.602 462.916 256.699C462.963 256.797 463.043 256.885 463.156 256.963C463.273 257.041 463.428 257.111 463.619 257.174C463.814 257.236 464.061 257.297 464.357 257.355C464.748 257.438 465.098 257.533 465.406 257.643C465.715 257.748 465.975 257.877 466.186 258.029C466.396 258.178 466.557 258.352 466.666 258.551C466.779 258.75 466.836 258.98 466.836 259.242C466.836 259.523 466.771 259.779 466.643 260.01C466.518 260.24 466.342 260.438 466.115 260.602C465.889 260.766 465.617 260.893 465.301 260.982C464.984 261.072 464.639 261.117 464.264 261.117C463.834 261.117 463.451 261.061 463.115 260.947C462.779 260.83 462.494 260.678 462.26 260.49C462.029 260.299 461.852 260.078 461.727 259.828C461.605 259.578 461.545 259.318 461.545 259.049H462.629C462.645 259.271 462.703 259.459 462.805 259.611C462.91 259.764 463.039 259.887 463.191 259.98C463.348 260.074 463.52 260.141 463.707 260.18C463.895 260.219 464.08 260.238 464.264 260.238C464.721 260.238 465.082 260.154 465.348 259.986C465.613 259.818 465.748 259.596 465.752 259.318ZM469.83 255.604C470.057 255.271 470.336 255.014 470.668 254.83C471 254.643 471.373 254.547 471.787 254.543C472.119 254.543 472.42 254.592 472.689 254.689C472.963 254.783 473.195 254.932 473.387 255.135C473.578 255.338 473.725 255.596 473.826 255.908C473.932 256.217 473.984 256.584 473.984 257.01V261H472.9V256.998C472.9 256.479 472.775 256.092 472.525 255.838C472.279 255.584 471.926 255.459 471.465 255.463C471.117 255.463 470.801 255.549 470.516 255.721C470.234 255.889 470.006 256.113 469.83 256.395V261H468.746V252H469.83V255.604ZM476.123 254.66H479.363V260.062H481.432V261H476.123V260.062H478.279V255.604H476.123V254.66ZM478.139 252.996C478.139 252.816 478.191 252.666 478.297 252.545C478.406 252.42 478.57 252.357 478.789 252.357C479.004 252.357 479.166 252.42 479.275 252.545C479.385 252.666 479.439 252.816 479.439 252.996C479.439 253.172 479.385 253.318 479.275 253.436C479.166 253.553 479.004 253.611 478.789 253.611C478.57 253.611 478.406 253.553 478.297 253.436C478.191 253.318 478.139 253.172 478.139 252.996ZM488.51 257.9C488.51 258.354 488.455 258.777 488.346 259.172C488.236 259.562 488.076 259.902 487.865 260.191C487.654 260.48 487.393 260.707 487.08 260.871C486.771 261.035 486.418 261.117 486.02 261.117C485.633 261.117 485.291 261.055 484.994 260.93C484.701 260.805 484.449 260.625 484.238 260.391V263.438H483.154V254.66H484.145L484.197 255.352C484.408 255.09 484.662 254.891 484.959 254.754C485.26 254.613 485.607 254.543 486.002 254.543C486.408 254.543 486.768 254.623 487.08 254.783C487.393 254.943 487.654 255.166 487.865 255.451C488.076 255.736 488.236 256.078 488.346 256.477C488.455 256.871 488.51 257.305 488.51 257.777V257.9ZM487.426 257.777C487.426 257.469 487.391 257.176 487.32 256.898C487.254 256.617 487.148 256.371 487.004 256.16C486.863 255.945 486.684 255.775 486.465 255.65C486.246 255.525 485.984 255.463 485.68 255.463C485.332 255.463 485.039 255.545 484.801 255.709C484.566 255.869 484.379 256.076 484.238 256.33V259.383C484.379 259.633 484.566 259.838 484.801 259.998C485.035 260.154 485.332 260.232 485.691 260.232C485.992 260.232 486.252 260.17 486.471 260.045C486.689 259.916 486.869 259.744 487.01 259.529C487.15 259.314 487.254 259.066 487.32 258.785C487.391 258.504 487.426 258.209 487.426 257.9V257.777ZM498.764 252.469L500.152 256.734L501.652 252.469H503V261H501.945V257.596L502.033 254.033L500.457 258.627H499.836L498.389 254.156L498.477 257.596V261H497.422V252.469H498.764ZM508.947 261C508.904 260.918 508.869 260.816 508.842 260.695C508.818 260.57 508.801 260.441 508.789 260.309C508.68 260.418 508.557 260.521 508.42 260.619C508.287 260.717 508.139 260.803 507.975 260.877C507.814 260.951 507.643 261.01 507.459 261.053C507.275 261.096 507.08 261.117 506.873 261.117C506.537 261.117 506.232 261.068 505.959 260.971C505.689 260.873 505.459 260.742 505.268 260.578C505.08 260.41 504.934 260.213 504.828 259.986C504.727 259.756 504.676 259.508 504.676 259.242C504.676 258.895 504.744 258.59 504.881 258.328C505.021 258.066 505.219 257.85 505.473 257.678C505.727 257.502 506.031 257.371 506.387 257.285C506.746 257.199 507.146 257.156 507.588 257.156H508.771V256.658C508.771 256.467 508.736 256.295 508.666 256.143C508.596 255.99 508.496 255.861 508.367 255.756C508.238 255.646 508.08 255.562 507.893 255.504C507.709 255.445 507.502 255.416 507.271 255.416C507.057 255.416 506.863 255.443 506.691 255.498C506.523 255.553 506.381 255.625 506.264 255.715C506.146 255.805 506.055 255.912 505.988 256.037C505.926 256.158 505.895 256.285 505.895 256.418H504.805C504.809 256.188 504.867 255.961 504.98 255.738C505.098 255.516 505.264 255.316 505.479 255.141C505.697 254.961 505.961 254.816 506.27 254.707C506.582 254.598 506.936 254.543 507.33 254.543C507.689 254.543 508.023 254.588 508.332 254.678C508.641 254.764 508.906 254.896 509.129 255.076C509.355 255.252 509.533 255.473 509.662 255.738C509.791 256.004 509.855 256.314 509.855 256.67V259.617C509.855 259.828 509.875 260.053 509.914 260.291C509.953 260.525 510.008 260.73 510.078 260.906V261H508.947ZM507.031 260.174C507.242 260.174 507.439 260.146 507.623 260.092C507.807 260.037 507.973 259.965 508.121 259.875C508.273 259.785 508.404 259.684 508.514 259.57C508.623 259.453 508.709 259.332 508.771 259.207V257.924H507.764C507.131 257.924 506.639 258.018 506.287 258.205C505.936 258.393 505.76 258.688 505.76 259.09C505.76 259.246 505.785 259.391 505.836 259.523C505.891 259.656 505.971 259.771 506.076 259.869C506.182 259.963 506.314 260.037 506.475 260.092C506.635 260.146 506.82 260.174 507.031 260.174ZM512.961 254.66L513.037 255.598C513.268 255.27 513.551 255.014 513.887 254.83C514.223 254.643 514.598 254.547 515.012 254.543C515.344 254.543 515.645 254.59 515.914 254.684C516.188 254.777 516.42 254.924 516.611 255.123C516.803 255.322 516.949 255.576 517.051 255.885C517.156 256.189 517.209 256.553 517.209 256.975V261H516.125V256.998C516.125 256.717 516.094 256.479 516.031 256.283C515.969 256.088 515.875 255.93 515.75 255.809C515.629 255.688 515.479 255.6 515.299 255.545C515.123 255.49 514.92 255.463 514.689 255.463C514.326 255.463 514.006 255.555 513.729 255.738C513.455 255.918 513.236 256.156 513.072 256.453V261H511.988V254.66H512.961ZM523.361 261C523.318 260.918 523.283 260.816 523.256 260.695C523.232 260.57 523.215 260.441 523.203 260.309C523.094 260.418 522.971 260.521 522.834 260.619C522.701 260.717 522.553 260.803 522.389 260.877C522.229 260.951 522.057 261.01 521.873 261.053C521.689 261.096 521.494 261.117 521.287 261.117C520.951 261.117 520.646 261.068 520.373 260.971C520.104 260.873 519.873 260.742 519.682 260.578C519.494 260.41 519.348 260.213 519.242 259.986C519.141 259.756 519.09 259.508 519.09 259.242C519.09 258.895 519.158 258.59 519.295 258.328C519.436 258.066 519.633 257.85 519.887 257.678C520.141 257.502 520.445 257.371 520.801 257.285C521.16 257.199 521.561 257.156 522.002 257.156H523.186V256.658C523.186 256.467 523.15 256.295 523.08 256.143C523.01 255.99 522.91 255.861 522.781 255.756C522.652 255.646 522.494 255.562 522.307 255.504C522.123 255.445 521.916 255.416 521.686 255.416C521.471 255.416 521.277 255.443 521.105 255.498C520.938 255.553 520.795 255.625 520.678 255.715C520.561 255.805 520.469 255.912 520.402 256.037C520.34 256.158 520.309 256.285 520.309 256.418H519.219C519.223 256.188 519.281 255.961 519.395 255.738C519.512 255.516 519.678 255.316 519.893 255.141C520.111 254.961 520.375 254.816 520.684 254.707C520.996 254.598 521.35 254.543 521.744 254.543C522.104 254.543 522.438 254.588 522.746 254.678C523.055 254.764 523.32 254.896 523.543 255.076C523.77 255.252 523.947 255.473 524.076 255.738C524.205 256.004 524.27 256.314 524.27 256.67V259.617C524.27 259.828 524.289 260.053 524.328 260.291C524.367 260.525 524.422 260.73 524.492 260.906V261H523.361ZM521.445 260.174C521.656 260.174 521.854 260.146 522.037 260.092C522.221 260.037 522.387 259.965 522.535 259.875C522.688 259.785 522.818 259.684 522.928 259.57C523.037 259.453 523.123 259.332 523.186 259.207V257.924H522.178C521.545 257.924 521.053 258.018 520.701 258.205C520.35 258.393 520.174 258.688 520.174 259.09C520.174 259.246 520.199 259.391 520.25 259.523C520.305 259.656 520.385 259.771 520.49 259.869C520.596 259.963 520.729 260.037 520.889 260.092C521.049 260.146 521.234 260.174 521.445 260.174ZM526.203 257.777C526.203 257.305 526.26 256.871 526.373 256.477C526.49 256.078 526.658 255.736 526.877 255.451C527.096 255.166 527.361 254.943 527.674 254.783C527.986 254.623 528.34 254.543 528.734 254.543C529.125 254.543 529.467 254.613 529.76 254.754C530.057 254.891 530.309 255.09 530.516 255.352L530.568 254.66H531.553V260.865C531.553 261.283 531.486 261.654 531.354 261.979C531.225 262.303 531.041 262.578 530.803 262.805C530.568 263.031 530.287 263.203 529.959 263.32C529.631 263.438 529.268 263.496 528.869 263.496C528.705 263.496 528.518 263.477 528.307 263.438C528.096 263.402 527.881 263.342 527.662 263.256C527.447 263.174 527.238 263.062 527.035 262.922C526.836 262.781 526.664 262.607 526.52 262.4L527.082 261.75C527.215 261.91 527.352 262.045 527.492 262.154C527.633 262.268 527.775 262.357 527.92 262.424C528.064 262.49 528.209 262.537 528.354 262.564C528.498 262.596 528.643 262.611 528.787 262.611C529.045 262.611 529.277 262.574 529.484 262.5C529.691 262.426 529.867 262.316 530.012 262.172C530.16 262.031 530.273 261.855 530.352 261.645C530.43 261.434 530.469 261.191 530.469 260.918V260.373C530.258 260.615 530.008 260.801 529.719 260.93C529.434 261.055 529.102 261.117 528.723 261.117C528.336 261.117 527.986 261.035 527.674 260.871C527.361 260.707 527.096 260.48 526.877 260.191C526.662 259.902 526.496 259.562 526.379 259.172C526.262 258.777 526.203 258.354 526.203 257.9V257.777ZM527.287 257.9C527.287 258.209 527.318 258.502 527.381 258.779C527.447 259.057 527.549 259.301 527.686 259.512C527.826 259.723 528.004 259.891 528.219 260.016C528.434 260.137 528.691 260.197 528.992 260.197C529.18 260.197 529.348 260.176 529.496 260.133C529.648 260.086 529.783 260.021 529.9 259.939C530.021 259.857 530.129 259.76 530.223 259.646C530.316 259.533 530.398 259.408 530.469 259.271V256.365C530.398 256.232 530.316 256.111 530.223 256.002C530.129 255.893 530.021 255.799 529.9 255.721C529.779 255.639 529.645 255.576 529.496 255.533C529.348 255.486 529.184 255.463 529.004 255.463C528.699 255.463 528.438 255.525 528.219 255.65C528.004 255.775 527.826 255.945 527.686 256.16C527.549 256.371 527.447 256.617 527.381 256.898C527.318 257.176 527.287 257.469 527.287 257.777V257.9ZM536.41 261.117C535.965 261.117 535.555 261.041 535.18 260.889C534.809 260.736 534.49 260.523 534.225 260.25C533.959 259.977 533.752 259.652 533.604 259.277C533.455 258.902 533.381 258.494 533.381 258.053V257.807C533.381 257.295 533.463 256.838 533.627 256.436C533.791 256.029 534.008 255.688 534.277 255.41C534.551 255.129 534.859 254.914 535.203 254.766C535.551 254.617 535.906 254.543 536.27 254.543C536.727 254.543 537.125 254.623 537.465 254.783C537.809 254.939 538.094 255.158 538.32 255.439C538.547 255.717 538.715 256.045 538.824 256.424C538.938 256.803 538.994 257.213 538.994 257.654V258.141H534.465C534.477 258.43 534.531 258.701 534.629 258.955C534.73 259.209 534.867 259.432 535.039 259.623C535.215 259.811 535.424 259.959 535.666 260.068C535.908 260.178 536.176 260.232 536.469 260.232C536.855 260.232 537.199 260.154 537.5 259.998C537.801 259.842 538.051 259.635 538.25 259.377L538.912 259.893C538.807 260.053 538.674 260.207 538.514 260.355C538.357 260.5 538.176 260.629 537.969 260.742C537.762 260.855 537.527 260.945 537.266 261.012C537.004 261.082 536.719 261.117 536.41 261.117ZM536.27 255.434C536.051 255.434 535.844 255.475 535.648 255.557C535.453 255.635 535.277 255.752 535.121 255.908C534.965 256.061 534.832 256.25 534.723 256.477C534.617 256.699 534.543 256.957 534.5 257.25H537.91V257.168C537.898 256.957 537.857 256.748 537.787 256.541C537.721 256.334 537.621 256.148 537.488 255.984C537.355 255.82 537.188 255.688 536.984 255.586C536.785 255.484 536.547 255.434 536.27 255.434ZM541.314 254.66L541.344 255.258C541.473 255.035 541.641 254.861 541.848 254.736C542.059 254.611 542.312 254.547 542.609 254.543C543.191 254.543 543.58 254.77 543.775 255.223C543.9 255.02 544.064 254.857 544.268 254.736C544.475 254.611 544.725 254.547 545.018 254.543C545.482 254.543 545.84 254.686 546.09 254.971C546.34 255.256 546.465 255.688 546.465 256.266V261H545.434V256.254C545.434 255.723 545.189 255.459 544.701 255.463C544.572 255.463 544.461 255.48 544.367 255.516C544.273 255.551 544.195 255.6 544.133 255.662C544.07 255.721 544.021 255.791 543.986 255.873C543.951 255.951 543.928 256.033 543.916 256.119V261H542.885V256.248C542.885 255.994 542.828 255.799 542.715 255.662C542.602 255.525 542.422 255.459 542.176 255.463C541.949 255.463 541.773 255.508 541.648 255.598C541.523 255.688 541.432 255.807 541.373 255.955V261H540.342V254.66H541.314ZM550.824 261.117C550.379 261.117 549.969 261.041 549.594 260.889C549.223 260.736 548.904 260.523 548.639 260.25C548.373 259.977 548.166 259.652 548.018 259.277C547.869 258.902 547.795 258.494 547.795 258.053V257.807C547.795 257.295 547.877 256.838 548.041 256.436C548.205 256.029 548.422 255.688 548.691 255.41C548.965 255.129 549.273 254.914 549.617 254.766C549.965 254.617 550.32 254.543 550.684 254.543C551.141 254.543 551.539 254.623 551.879 254.783C552.223 254.939 552.508 255.158 552.734 255.439C552.961 255.717 553.129 256.045 553.238 256.424C553.352 256.803 553.408 257.213 553.408 257.654V258.141H548.879C548.891 258.43 548.945 258.701 549.043 258.955C549.145 259.209 549.281 259.432 549.453 259.623C549.629 259.811 549.838 259.959 550.08 260.068C550.322 260.178 550.59 260.232 550.883 260.232C551.27 260.232 551.613 260.154 551.914 259.998C552.215 259.842 552.465 259.635 552.664 259.377L553.326 259.893C553.221 260.053 553.088 260.207 552.928 260.355C552.771 260.5 552.59 260.629 552.383 260.742C552.176 260.855 551.941 260.945 551.68 261.012C551.418 261.082 551.133 261.117 550.824 261.117ZM550.684 255.434C550.465 255.434 550.258 255.475 550.062 255.557C549.867 255.635 549.691 255.752 549.535 255.908C549.379 256.061 549.246 256.25 549.137 256.477C549.031 256.699 548.957 256.957 548.914 257.25H552.324V257.168C552.312 256.957 552.271 256.748 552.201 256.541C552.135 256.334 552.035 256.148 551.902 255.984C551.77 255.82 551.602 255.688 551.398 255.586C551.199 255.484 550.961 255.434 550.684 255.434ZM556.203 254.66L556.279 255.598C556.51 255.27 556.793 255.014 557.129 254.83C557.465 254.643 557.84 254.547 558.254 254.543C558.586 254.543 558.887 254.59 559.156 254.684C559.43 254.777 559.662 254.924 559.854 255.123C560.045 255.322 560.191 255.576 560.293 255.885C560.398 256.189 560.451 256.553 560.451 256.975V261H559.367V256.998C559.367 256.717 559.336 256.479 559.273 256.283C559.211 256.088 559.117 255.93 558.992 255.809C558.871 255.688 558.721 255.6 558.541 255.545C558.365 255.49 558.162 255.463 557.932 255.463C557.568 255.463 557.248 255.555 556.971 255.738C556.697 255.918 556.479 256.156 556.314 256.453V261H555.23V254.66H556.203ZM565.004 253.125V254.66H567.418V255.498H565.004V258.943C565.004 259.189 565.035 259.393 565.098 259.553C565.16 259.713 565.246 259.842 565.355 259.939C565.465 260.033 565.59 260.1 565.73 260.139C565.875 260.178 566.027 260.197 566.188 260.197C566.305 260.197 566.426 260.191 566.551 260.18C566.676 260.164 566.797 260.146 566.914 260.127C567.035 260.107 567.146 260.088 567.248 260.068C567.354 260.045 567.439 260.025 567.506 260.01L567.658 260.777C567.568 260.832 567.459 260.881 567.33 260.924C567.201 260.963 567.061 260.996 566.908 261.023C566.756 261.055 566.594 261.078 566.422 261.094C566.254 261.109 566.086 261.117 565.918 261.117C565.637 261.117 565.373 261.078 565.127 261C564.885 260.918 564.674 260.791 564.494 260.619C564.314 260.443 564.172 260.219 564.066 259.945C563.965 259.668 563.914 259.334 563.914 258.943V255.498H562.25V254.66H563.914V253.125H565.004Z" fill="#424242"/>
<ellipse cx="258" cy="601.5" rx="46" ry="9.5" fill="#2C2C2C" fill-opacity="0.11"/>
<ellipse cx="624" cy="598.5" rx="46" ry="9.5" fill="#2C2C2C" fill-opacity="0.11"/>
<path d="M215.41 480C215.41 477.239 217.649 475 220.41 475H235.41L251.422 477.001C253.751 477.293 255.564 479.165 255.78 481.503L260.91 537L258.087 595.345C257.988 597.392 256.3 599 254.251 599V599C252.13 599 250.41 597.28 250.41 595.159V550.888C250.41 550.301 250.307 549.718 250.105 549.166L233.91 505L226.16 552L222.678 595.65C222.527 597.542 220.948 599 219.05 599V599C217.04 599 215.41 597.371 215.41 595.361V480Z" fill="#424242"/>
<path d="M327.659 358.858L316.563 365.198C314.822 366.193 314.217 368.412 315.212 370.153L315.466 370.597C316.557 372.506 318.949 373.231 320.916 372.247L328.705 368.353C330.18 367.615 330.742 365.797 329.942 364.356L329.531 363.618C329.162 362.953 329.266 362.124 329.79 361.572C331.17 360.115 329.401 357.862 327.659 358.858Z" fill="#EAC285"/>
<path d="M180.797 449.577L183.468 444.766C184.636 442.661 187.29 441.902 189.395 443.071C191.5 444.239 192.259 446.893 191.091 448.998L188.42 453.809C187.575 455.331 185.443 455.48 184.395 454.089C183.986 453.546 183.365 453.201 182.687 453.141C180.953 452.987 179.952 451.099 180.797 449.577Z" fill="#EAC285"/>
<path d="M191.225 447.5C187.383 447.5 185.036 443.278 187.065 440.014L217.943 390.36C218.856 388.892 220.461 388 222.189 388H237.41H258.504C259.103 388 259.698 387.892 260.259 387.682L314.909 367.188C317.087 366.371 319.41 367.981 319.41 370.307V370.307C319.41 371.371 318.903 372.37 318.043 372.996C311.886 377.473 286.663 395.748 277.91 401C269.484 406.056 262.123 418.211 260.015 421.912C259.61 422.623 259.41 423.428 259.41 424.246V480.5C259.41 483.261 257.172 485.5 254.41 485.5H220.41C217.649 485.5 215.41 483.261 215.41 480.5V423L194.87 445.874C193.941 446.909 192.616 447.5 191.225 447.5V447.5Z" fill="#4A6DB1"/>
<path d="M227.41 365H253.41V379.489C253.41 382.77 251.801 385.842 249.103 387.71L245.888 389.937C242.377 392.368 237.711 392.302 234.271 389.772L231.486 387.725C228.924 385.841 227.41 382.849 227.41 379.669V365Z" fill="#EAC285"/>
<path d="M224.003 362.323C223.201 359.371 225.424 356.463 228.483 356.463V356.463C229.095 356.463 229.701 356.342 230.266 356.107L249.797 347.983C250.922 347.515 252.16 348.342 252.16 349.559V349.559C252.16 351.024 253.885 351.808 254.99 350.846V350.846C256.28 349.724 258.238 350.978 257.755 352.617L254.675 363.069C254.199 364.683 252.927 365.939 251.308 366.395L238.498 369.999C237.022 370.415 235.818 371.484 235.232 372.902L232.562 379.358C232.194 380.247 232.217 381.249 232.625 382.12L233.28 383.518C234.039 385.139 232.856 387 231.066 387V387C230.066 387 229.167 386.391 228.796 385.463L223.323 371.782C222.751 370.351 222.911 368.732 223.752 367.441V367.441C224.489 366.31 224.708 364.918 224.354 363.615L224.003 362.323Z" fill="#424242"/>
<path d="M250.38 594.841C250.465 593.248 251.781 592 253.376 592H254.651C255.936 592 257.078 592.818 257.492 594.034L257.808 594.966C258.222 596.182 259.364 597 260.649 597H264.5C265.881 597 267 598.119 267 599.5V599.5C267 600.881 265.881 602 264.5 602H253.164C251.444 602 250.077 600.558 250.168 598.841L250.38 594.841Z" fill="#424242"/>
<path d="M215.38 594.841C215.465 593.248 216.781 592 218.376 592H219.651C220.936 592 222.078 592.818 222.492 594.034L222.808 594.966C223.222 596.182 224.364 597 225.649 597H229.5C230.881 597 232 598.119 232 599.5V599.5C232 600.881 230.881 602 229.5 602H218.164C216.444 602 215.077 600.558 215.168 598.841L215.38 594.841Z" fill="#424242"/>
<path d="M585 337V597C585 599.761 587.239 602 590 602C592.761 602 595 599.761 595 597V337C595 334.239 592.761 332 590 332C587.239 332 585 334.239 585 337Z" fill="#E3C69B"/>
<path d="M595 567H650C652.761 567 655 564.761 655 562C655 559.239 652.761 557 650 557H595C592.239 557 590 559.239 590 562C590 564.761 592.239 567 595 567Z" fill="#E3C69B"/>
<path d="M595 527H650C652.761 527 655 524.761 655 522C655 519.239 652.761 517 650 517H595C592.239 517 590 519.239 590 522C590 524.761 592.239 527 595 527Z" fill="#E3C69B"/>
<path d="M595 487H650C652.761 487 655 484.761 655 482C655 479.239 652.761 477 650 477H595C592.239 477 590 479.239 590 482C590 484.761 592.239 487 595 487Z" fill="#E3C69B"/>
<path d="M595 447H650C652.761 447 655 444.761 655 442C655 439.239 652.761 437 650 437H595C592.239 437 590 439.239 590 442C590 444.761 592.239 447 595 447Z" fill="#E3C69B"/>
<path d="M595 407H650C652.761 407 655 404.761 655 402C655 399.239 652.761 397 650 397H595C592.239 397 590 399.239 590 402C590 404.761 592.239 407 595 407Z" fill="#E3C69B"/>
<path d="M595 367H650C652.761 367 655 364.761 655 362C655 359.239 652.761 357 650 357H595C592.239 357 590 359.239 590 362C590 364.761 592.239 367 595 367Z" fill="#E3C69B"/>
<path d="M650 337V597C650 599.761 652.239 602 655 602C657.761 602 660 599.761 660 597V337C660 334.239 657.761 332 655 332C652.239 332 650 334.239 650 337Z" fill="#E3C69B"/>
<path d="M593.028 474V468.682C593.028 467.025 594.371 465.682 596.028 465.682H597.146C598.604 465.682 599.786 466.865 599.786 468.323C599.786 469.782 600.969 470.964 602.427 470.964H604.028C605.685 470.964 607.028 472.325 607.028 473.982C607.028 475.639 605.685 477 604.028 477H596.028C594.371 477 593.028 475.657 593.028 474Z" fill="#424242"/>
<path d="M643.028 474V468.682C643.028 467.025 644.371 465.682 646.028 465.682H647.146C648.604 465.682 649.786 466.865 649.786 468.323C649.786 469.782 650.969 470.964 652.427 470.964H654.028C655.685 470.964 657.028 472.325 657.028 473.982C657.028 475.639 655.685 477 654.028 477H646.028C644.371 477 643.028 475.657 643.028 474Z" fill="#424242"/>
<path d="M593.028 344.188C593.028 342.531 594.371 341.188 596.028 341.188H647.028C648.685 341.188 650.028 342.531 650.028 344.188V468.856C650.028 470.512 648.685 471.856 647.028 471.856H645.576C644.118 471.856 642.871 470.808 642.621 469.372L635.824 430.45C635.793 430.274 635.747 430.102 635.685 429.934L623.976 397.992C623.004 395.34 619.24 395.379 618.322 398.05L607.362 429.941C607.306 430.104 607.264 430.272 607.237 430.442L601.012 469.33C600.779 470.785 599.523 471.856 598.05 471.856H596.028C594.371 471.856 593.028 470.512 593.028 468.856V344.188Z" fill="#424242"/>
<path d="M593.028 197.355V209.578C593.028 211.234 594.371 212.578 596.028 212.578H597.028C598.685 212.578 600.028 211.234 600.028 209.578V199.025C600.028 198.915 600.014 198.805 599.987 198.699L599.25 195.81C599.046 195.009 597.885 195.08 597.78 195.901C597.682 196.674 596.615 196.801 596.337 196.074L596.164 195.622C595.88 194.879 594.778 195.083 594.778 195.878V196.934C594.778 197.42 594.124 197.578 593.903 197.144C593.682 196.711 593.028 196.868 593.028 197.355Z" fill="#EAC285"/>
<path d="M649.028 197.355V209.578C649.028 211.234 650.371 212.578 652.028 212.578H653.028C654.685 212.578 656.028 211.234 656.028 209.578V199.025C656.028 198.915 656.014 198.805 655.987 198.699L655.25 195.81C655.046 195.009 653.885 195.08 653.78 195.901C653.682 196.674 652.615 196.801 652.337 196.074L652.164 195.622C651.88 194.879 650.778 195.083 650.778 195.878V196.934C650.778 197.42 650.124 197.578 649.903 197.144C649.682 196.711 649.028 196.868 649.028 197.355Z" fill="#EAC285"/>
<path d="M596.874 208.462C598.203 208.462 599.333 209.432 599.534 210.745L607.235 261.081C607.413 262.245 608.256 263.197 609.39 263.515L623.177 267.384C623.732 267.54 624.321 267.532 624.872 267.362L637.33 263.517C638.377 263.194 639.164 262.325 639.384 261.252L649.693 210.861C649.979 209.465 651.208 208.462 652.633 208.462H653.013C654.735 208.462 656.104 209.909 656.008 211.628L650.184 316.495L651.836 348.321C651.925 350.037 650.558 351.477 648.84 351.477H593.38C591.582 351.477 590.188 349.906 590.401 348.12L594.184 316.495V211.152C594.184 209.667 595.389 208.462 596.874 208.462V208.462Z" fill="#5843D6"/>
<path d="M611.028 243.444H637.028V258.588C637.028 261.822 635.464 264.856 632.83 266.732L629.618 269.021C626.059 271.556 621.267 271.488 617.782 268.852L614.995 266.743C612.496 264.852 611.028 261.901 611.028 258.768V243.444Z" fill="#EAC285"/>
<path d="M640.642 242.701C641.777 239.812 639.859 236.613 636.771 236.246V236.246C636.146 236.172 635.541 235.974 634.992 235.663L616.225 225.033C615.136 224.417 613.779 225.114 613.64 226.354V226.354C613.473 227.839 611.633 228.434 610.628 227.32V227.32C609.46 226.025 607.336 227.051 607.633 228.768L609.555 239.873C609.849 241.57 610.993 243.003 612.583 243.666L625.132 248.896C626.552 249.488 627.625 250.698 628.044 252.178L630.02 259.165C630.288 260.114 630.151 261.129 629.642 261.967L628.792 263.364C627.849 264.914 628.836 266.932 630.643 267.147V267.147C631.658 267.267 632.64 266.755 633.119 265.854L640.219 252.517C640.96 251.124 640.983 249.455 640.281 248.033V248.033C639.666 246.787 639.603 245.343 640.109 244.056L640.642 242.701Z" fill="#424242"/>
<defs>
<linearGradient id="paint0_linear" x1="373.753" y1="0" x2="373.753" y2="919.5" gradientUnits="userSpaceOnUse">
<stop stop-color="#1E88E5" stop-opacity="0.5"/>
<stop offset="1" stop-color="#1E88E5"/>
</linearGradient>
</defs>
</svg>
